<svg xmlns="http://www.w3.org/2000/svg" width="31" height="30" viewBox="0 0 31 30"><path d="M27.86 30c-1.72 0-3.13-1.4-3.13-3.12 0-.46.1-.9.28-1.29l-5.06-4.18a5.66 5.66 0 0 1-7.78-.2l-6.12 4.53c.14.35.22.74.22 1.14C6.27 28.6 4.86 30 3.14 30 1.41 30 0 28.6 0 26.88c0-1.72 1.41-3.12 3.14-3.12.72 0 1.4.25 1.93.66l6.11-4.53c-.43-.79-.67-1.7-.67-2.67 0-2.82 2.1-5.17 4.83-5.57V6.13a3.123 3.123 0 0 1-2.31-3.01C13.03 1.4 14.44 0 16.17 0c1.72 0 3.13 1.4 3.13 3.12 0 1.44-.98 2.65-2.31 3.01v5.52c2.73.4 4.83 2.75 4.83 5.57 0 1.07-.3 2.07-.82 2.93l5.06 4.18c.51-.36 1.13-.57 1.8-.57 1.73 0 3.14 1.4 3.14 3.12C31 28.6 29.59 30 27.86 30zM3.14 25.4c-.82 0-1.49.66-1.49 1.48 0 .81.67 1.48 1.49 1.48s1.48-.67 1.48-1.48c0-.82-.66-1.48-1.48-1.48zM17.65 3.12c0-.81-.66-1.48-1.48-1.48s-1.49.67-1.49 1.48c0 .82.67 1.48 1.49 1.48s1.48-.66 1.48-1.48zm-1.48 10.11c-2.21 0-4.01 1.79-4.01 3.99s1.8 3.99 4.01 3.99 4-1.79 4-3.99-1.79-3.99-4-3.99zM27.86 25.4c-.81 0-1.48.66-1.48 1.48 0 .81.67 1.48 1.48 1.48.82 0 1.49-.67 1.49-1.48 0-.82-.67-1.48-1.49-1.48z" fill="#FFF"/></svg>