<svg xmlns="http://www.w3.org/2000/svg" width="168" height="169" viewBox="0 0 168 169"><path d="M147.96 133.87H86.31v30.52h39.31a2.305 2.305 0 1 1 0 4.61H42.38a2.305 2.305 0 1 1 0-4.61h39.31v-30.52H20.04C8.99 133.87 0 124.89 0 113.86V51.2c0-.17.01-.34.03-.51.01-.04.02-.08.02-.13.02-.12.04-.24.07-.37.01-.05.02-.09.04-.14.02-.12.06-.23.09-.34l.06-.15c.04-.11.09-.21.13-.32.02-.03.03-.06.04-.09L23.6 2.56A4.63 4.63 0 0 1 27.75 0h112.5c1.76 0 3.37.99 4.15 2.56l23.12 46.59c.01.03.02.06.04.09.04.11.09.21.13.32l.06.15c.03.11.07.22.09.34.02.05.03.09.04.14.03.13.05.25.07.37 0 .05.01.09.02.13.02.17.03.34.03.51v62.66c0 11.03-8.99 20.01-20.04 20.01zM137.39 9.23H30.61L12.08 46.58h143.84L137.39 9.23zm21.36 46.59H9.25V85.7h149.5V55.82zm0 39.11H9.25v18.93c0 5.94 4.84 10.78 10.79 10.78h127.92c5.95 0 10.79-4.84 10.79-10.78V94.93zm-18.25 19.54c-2.41 0-4.37-1.96-4.37-4.37s1.96-4.36 4.37-4.36c2.42 0 4.38 1.95 4.38 4.36s-1.96 4.37-4.38 4.37zm0-5.66c-.71 0-1.29.58-1.29 1.29a1.295 1.295 0 0 0 2.59 0c0-.71-.58-1.29-1.3-1.29zm-17.71 5.66c-2.41 0-4.38-1.96-4.38-4.37s1.97-4.36 4.38-4.36 4.37 1.95 4.37 4.36-1.96 4.37-4.37 4.37zm0-5.66c-.71 0-1.29.58-1.29 1.29 0 .71.58 1.29 1.29 1.29.71 0 1.29-.58 1.29-1.29 0-.71-.58-1.29-1.29-1.29zm-17.95 5.66c-2.41 0-4.37-1.96-4.37-4.37s1.96-4.36 4.37-4.36 4.38 1.95 4.38 4.36-1.97 4.37-4.38 4.37zm0-5.66c-.71 0-1.29.58-1.29 1.29 0 .71.58 1.29 1.29 1.29.71 0 1.29-.58 1.29-1.29 0-.71-.58-1.29-1.29-1.29zm-79.15 12.1c-5.97 0-10.82-4.85-10.82-10.81 0-5.96 4.85-10.8 10.82-10.8 5.97 0 10.83 4.84 10.83 10.8 0 5.96-4.86 10.81-10.83 10.81zm0-17c-3.42 0-6.2 2.78-6.2 6.19 0 3.42 2.78 6.19 6.2 6.19 3.42 0 6.2-2.77 6.2-6.19 0-3.41-2.78-6.19-6.2-6.19zm0-44.74c5.97 0 10.83 4.85 10.83 10.8 0 5.96-4.86 10.81-10.83 10.81s-10.82-4.85-10.82-10.81c0-5.95 4.85-10.8 10.82-10.8zm0 16.99c3.42 0 6.2-2.77 6.2-6.19 0-3.41-2.78-6.19-6.2-6.19-3.42 0-6.2 2.78-6.2 6.19 0 3.42 2.78 6.19 6.2 6.19zm79.15-10.55c2.41 0 4.38 1.96 4.38 4.36 0 2.41-1.97 4.37-4.38 4.37s-4.37-1.96-4.37-4.37c0-2.4 1.96-4.36 4.37-4.36zm0 5.65c.71 0 1.29-.57 1.29-1.29 0-.71-.58-1.29-1.29-1.29-.71 0-1.29.58-1.29 1.29 0 .72.58 1.29 1.29 1.29zm17.95-5.65c2.41 0 4.37 1.96 4.37 4.36 0 2.41-1.96 4.37-4.37 4.37s-4.38-1.96-4.38-4.37c0-2.4 1.97-4.36 4.38-4.36zm0 5.65c.71 0 1.29-.57 1.29-1.29 0-.71-.58-1.29-1.29-1.29-.71 0-1.29.58-1.29 1.29 0 .72.58 1.29 1.29 1.29zm17.71-5.65c2.42 0 4.38 1.96 4.38 4.36a4.374 4.374 0 1 1-8.75 0c0-2.4 1.96-4.36 4.37-4.36zm0 5.65a1.289 1.289 0 1 0 0-2.58c-.71 0-1.29.58-1.29 1.29 0 .72.58 1.29 1.29 1.29zM6.17 164.39h9.76a2.305 2.305 0 1 1 0 4.61H6.17a2.305 2.305 0 1 1 0-4.61zm17.72 0h9.76c1.28 0 2.32 1.03 2.32 2.3 0 1.28-1.04 2.31-2.32 2.31h-9.76c-1.27 0-2.31-1.03-2.31-2.31 0-1.27 1.04-2.3 2.31-2.3zm109.94 0h9.76c1.28 0 2.32 1.03 2.32 2.3 0 1.28-1.04 2.31-2.32 2.31h-9.76c-1.27 0-2.31-1.03-2.31-2.31 0-1.27 1.04-2.3 2.31-2.3zm16.7 0h9.76a2.305 2.305 0 1 1 0 4.61h-9.76a2.305 2.305 0 1 1 0-4.61z" fill="#FFF"/></svg>