<?xml version="1.0" encoding="utf-8"?>
<svg xmlns="http://www.w3.org/2000/svg"
	xmlns:xlink="http://www.w3.org/1999/xlink"
	width="31px" height="30px" viewBox="0 0 31 30">
<path fillRule="evenodd" d="M 27.86 30C 26.14 30 24.73 28.6 24.73 26.88 24.73 26.42 24.83 25.98 25.01 25.59 25.01 25.59 19.95 21.41 19.95 21.41 18.94 22.31 17.62 22.86 16.17 22.86 14.61 22.86 13.19 22.23 12.17 21.21 12.17 21.21 6.05 25.74 6.05 25.74 6.19 26.09 6.27 26.48 6.27 26.88 6.27 28.6 4.86 30 3.14 30 1.41 30 0 28.6 0 26.88 0 25.16 1.41 23.76 3.14 23.76 3.86 23.76 4.54 24.01 5.07 24.42 5.07 24.42 11.18 19.89 11.18 19.89 10.75 19.1 10.51 18.19 10.51 17.22 10.51 14.4 12.61 12.05 15.34 11.65 15.34 11.65 15.34 6.13 15.34 6.13 14.01 5.77 13.03 4.56 13.03 3.12 13.03 1.4 14.44-0 16.17-0 17.89-0 19.3 1.4 19.3 3.12 19.3 4.56 18.32 5.77 16.99 6.13 16.99 6.13 16.99 11.65 16.99 11.65 19.72 12.05 21.82 14.4 21.82 17.22 21.82 18.29 21.52 19.29 21 20.15 21 20.15 26.06 24.33 26.06 24.33 26.57 23.97 27.19 23.76 27.86 23.76 29.59 23.76 31 25.16 31 26.88 31 28.6 29.59 30 27.86 30ZM 3.14 25.4C 2.32 25.4 1.65 26.06 1.65 26.88 1.65 27.69 2.32 28.36 3.14 28.36 3.96 28.36 4.62 27.69 4.62 26.88 4.62 26.06 3.96 25.4 3.14 25.4ZM 17.65 3.12C 17.65 2.31 16.99 1.64 16.17 1.64 15.35 1.64 14.68 2.31 14.68 3.12 14.68 3.94 15.35 4.6 16.17 4.6 16.99 4.6 17.65 3.94 17.65 3.12ZM 16.17 13.23C 13.96 13.23 12.16 15.02 12.16 17.22 12.16 19.42 13.96 21.21 16.17 21.21 18.38 21.21 20.17 19.42 20.17 17.22 20.17 15.02 18.38 13.23 16.17 13.23ZM 27.86 25.4C 27.05 25.4 26.38 26.06 26.38 26.88 26.38 27.69 27.05 28.36 27.86 28.36 28.68 28.36 29.35 27.69 29.35 26.88 29.35 26.06 28.68 25.4 27.86 25.4Z" fill="rgb(255,255,255)"/></svg>